# xmcd CD database file
#
# Track frame offsets:
#	150
#	30425
#	65327
#	92410
#	136110
#	156655
#
# Disc length: 2589 seconds
#
# Revision: 1
# Processed by: cddbd v1.5.1PL0 Copyright (c) Steve Scherf et al.
# Submitted via: CDex 1.51
#
DISCID=430a1b06
DTITLE=Kenny Dorham - 'Round About Midnight At The Cafe Bohemia
DYEAR=1956
DGENRE=Jazz
TTITLE0=Monaco
TTITLE1=Rounf About Midnight
TTITLE2=Mexico City
TTITLE3=A Night In Tunisia
TTITLE4=Autumn In New York
TTITLE5=Hill's Edge
EXTD=YEAR: 1956
EXTT0=
EXTT1=
EXTT2=
EXTT3=
EXTT4=
EXTT5=
PLAYORDER=
